<?xml version="1.0" encoding="UTF-8"?>
<svg version="1.1" xmlns="http://www.w3.org/2000/svg" width="1080" height="246">
<path d="M0 0 C2.0098833 -0.01657301 4.01970734 -0.04388068 6.02929688 -0.08203125 C8.91974609 -0.13665765 11.80881192 -0.1586512 14.69970703 -0.17333984 C16.04982376 -0.2073439 16.04982376 -0.2073439 17.42721558 -0.24203491 C19.7685427 -0.23406652 21.86358952 -0.17572782 24.14501953 0.35009766 C26.09960938 2.56665039 26.09960938 2.56665039 27.14501953 5.35009766 C27.51208008 6.15632568 27.87914062 6.96255371 28.25732422 7.79321289 C28.60698242 8.6563208 28.95664063 9.51942871 29.31689453 10.40869141 C29.72705811 11.41697998 30.13722168 12.42526855 30.55981445 13.46411133 C31.00043213 14.56086182 31.4410498 15.6576123 31.89501953 16.78759766 C32.35948486 17.93526611 32.8239502 19.08293457 33.30249023 20.26538086 C40.02779687 36.91564631 46.57746146 53.63716257 53.14501953 70.35009766 C53.61480225 69.13845947 54.08458496 67.92682129 54.56860352 66.6784668 C55.19691139 65.05988469 55.8252496 63.44131435 56.45361328 61.82275391 C56.76182007 61.02760376 57.07002686 60.23245361 57.38757324 59.41320801 C59.28765009 54.52104175 61.22736933 49.64790322 63.20751953 44.78759766 C65.30217218 39.57867308 67.23932569 34.34020286 69.08251953 29.03759766 C71.25659816 22.79101033 73.52319816 16.58701023 75.89501953 10.41259766 C76.33575806 9.24893677 76.33575806 9.24893677 76.78540039 8.06176758 C78.90852966 2.58658753 78.90852966 2.58658753 81.14501953 0.35009766 C82.98001099 0.10958862 82.98001099 0.10958862 85.22753906 0.12304688 C86.48861984 0.12327347 86.48861984 0.12327347 87.775177 0.12350464 C89.13774124 0.13898849 89.13774124 0.13898849 90.52783203 0.15478516 C91.92193802 0.15903 91.92193802 0.15903 93.34420776 0.1633606 C96.31960803 0.17457697 99.29470988 0.19968405 102.27001953 0.22509766 C104.28433811 0.23512558 106.29866139 0.24425175 108.31298828 0.25244141 C113.2571141 0.27452105 118.20101618 0.30906072 123.14501953 0.35009766 C124.37819111 2.81644082 124.26812977 4.42560939 124.26527405 7.18423462 C124.26733604 8.71552757 124.26733604 8.71552757 124.2694397 10.27775574 C124.26584442 11.40200455 124.26224915 12.52625336 124.25854492 13.68457031 C124.25869095 14.8650444 124.25883698 16.04551849 124.25898743 17.26176453 C124.25840912 20.5032954 124.25338536 23.74478341 124.24641347 26.98630571 C124.24017259 30.37224676 124.23957555 33.75818861 124.23838806 37.14413452 C124.23527692 43.55790776 124.22706644 49.971664 124.21703857 56.38542974 C124.20587072 63.68642312 124.20036529 70.98741731 124.19534314 78.2884171 C124.18488366 93.30898832 124.16654086 108.32953745 124.14501953 123.35009766 C113.25501953 123.35009766 102.36501953 123.35009766 91.14501953 123.35009766 C91.14501953 100.58009766 91.14501953 77.81009766 91.14501953 54.35009766 C87.51501953 63.92009766 83.88501953 73.49009766 80.14501953 83.35009766 C75.36809479 95.63361842 75.36809479 95.63361842 72.96142578 101.71826172 C71.9801471 104.20097821 71.00394954 106.68566048 70.02783203 109.17041016 C69.39791702 110.76688009 68.76772147 112.36323937 68.13720703 113.95947266 C67.84876923 114.69454041 67.56033142 115.42960815 67.26315308 116.18695068 C65.2597926 121.23532459 65.2597926 121.23532459 64.14501953 122.35009766 C62.51029071 122.43710108 60.87187898 122.45710828 59.23486328 122.44775391 C58.24550781 122.44453125 57.25615234 122.44130859 56.23681641 122.43798828 C55.19589844 122.42960937 54.15498047 122.42123047 53.08251953 122.41259766 C52.03773438 122.40808594 50.99294922 122.40357422 49.91650391 122.39892578 C47.32595293 122.38709678 44.73551395 122.37061455 42.14501953 122.35009766 C37.71731722 113.05559253 34.02142845 103.51545566 30.33251953 93.91259766 C25.36537095 81.01847164 20.27738863 68.1810204 15.14501953 55.35009766 C14.81501953 77.79009766 14.48501953 100.23009766 14.14501953 123.35009766 C3.25501953 123.35009766 -7.63498047 123.35009766 -18.85498047 123.35009766 C-18.8775277 107.46054321 -18.89595976 91.57100136 -18.90679264 75.68143559 C-18.91195555 68.30413809 -18.91899814 60.92685122 -18.93041992 53.54956055 C-18.94036693 47.12177586 -18.94683394 40.69399885 -18.94906896 34.26620668 C-18.95037604 30.86070488 -18.95346171 27.45522507 -18.96071053 24.0497303 C-18.96791652 20.25408725 -18.9689716 16.45849053 -18.96850586 12.6628418 C-18.97210114 11.52564697 -18.97569641 10.38845215 -18.97940063 9.21679688 C-18.97802597 8.18889542 -18.97665131 7.16099396 -18.97523499 6.10194397 C-18.97615678 5.20319581 -18.97707857 4.30444765 -18.9780283 3.3784647 C-18.6388702 -2.21234596 -4.54825533 0.02753812 0 0 Z " fill="#FDFDFC" transform="translate(154.85498046875,64.64990234375)"/>
<path d="M0 0 C1.12341797 0.78503906 1.12341797 0.78503906 2.26953125 1.5859375 C11.65492102 8.94350883 15.87222739 19.57082138 18 31 C14.10321195 31.36129161 10.20658702 31.64509283 6.29931641 31.86669922 C4.68382662 31.96035577 3.06892599 32.06447683 1.45458984 32.17626953 C-1.21746056 32.34832781 -3.88693445 32.46068558 -6.5625 32.5625 C-7.41875977 32.62566406 -8.27501953 32.68882813 -9.15722656 32.75390625 C-11.67680959 32.81761756 -13.59912231 32.77830963 -16 32 C-18.68749475 29.23062124 -21 25.9574393 -21 22 C-26.36378187 19.82549384 -30.47809208 18.81925113 -36.3125 18.75 C-38.25576172 18.71132812 -38.25576172 18.71132812 -40.23828125 18.671875 C-44.21330091 19.01860569 -46.55633224 20.0670698 -50 22 C-50.66 22 -51.32 22 -52 22 C-52 22.66 -52 23.32 -52 24 C-52.66 24 -53.32 24 -54 24 C-54.2475 24.639375 -54.495 25.27875 -54.75 25.9375 C-55.4616788 27.68111307 -56.19411205 29.41737928 -56.98828125 31.125 C-57.34277344 31.888125 -57.69726562 32.65125 -58.0625 33.4375 C-58.40410156 34.15808594 -58.74570312 34.87867188 -59.09765625 35.62109375 C-63.58247306 47.4447017 -62.0318278 64.0354598 -56.93359375 75.37109375 C-53.89361142 80.83904877 -50.17906059 83.68909468 -44.14453125 85.58203125 C-36.29547254 87.11181136 -29.20550273 86.27522851 -22 83 C-21.01 82.67 -20.02 82.34 -19 82 C-17.91257306 79.78566059 -17.91257306 79.78566059 -17 77 C-16.01 74.69 -15.02 72.38 -14 70 C-21.26 70 -28.52 70 -36 70 C-36 62.08 -36 54.16 -36 46 C-17.85 46 0.3 46 19 46 C19 68.01420493 18.87695462 85.26761259 4.125 101.4375 C-6.88602296 112.22976092 -21.78356546 115.94139299 -36.8125 116.1875 C-54.17746437 116.00276634 -69.82919644 110.54320286 -82.125 98.0625 C-94.74222216 83.54190218 -98.2012627 64.90075925 -97.16845703 46.12011719 C-95.88189577 29.92809107 -90.55360778 15.17834331 -78.61328125 3.70703125 C-56.43022384 -14.8543025 -23.73198073 -16.67269199 0 0 Z " fill="#FDFDFC" transform="translate(511,74)"/>
<path d="M0 0 C0.75040054 -0.00841919 1.50080109 -0.01683838 2.27394104 -0.0255127 C3.55052834 -0.04938049 3.55052834 -0.04938049 4.85290527 -0.07373047 C6.23416344 -0.07403259 6.23416344 -0.07403259 7.64332581 -0.07434082 C8.58781082 -0.08195435 9.53229584 -0.08956787 10.50540161 -0.09741211 C12.50520684 -0.10822951 14.50506863 -0.11105958 16.50489807 -0.10656738 C19.56957525 -0.10559563 22.63174527 -0.14718579 25.69606018 -0.19152832 C27.63681015 -0.19673546 29.57756885 -0.19942351 31.51832581 -0.19934082 C32.43714035 -0.21573608 33.3559549 -0.23213135 34.3026123 -0.24902344 C36.68257853 -0.22309705 38.82757806 -0.13697737 41.14723206 0.39440918 C43.07936096 2.46276855 43.07936096 2.46276855 44.14723206 5.39440918 C44.81226746 7.11144043 44.81226746 7.11144043 45.49073792 8.86315918 C45.9539078 10.20483339 46.41064602 11.5487394 46.86207581 12.89440918 C47.1136142 13.62975388 47.36515259 14.36509857 47.62431335 15.12272644 C48.45053382 17.54460039 49.26786062 19.96936742 50.08473206 22.39440918 C50.66516578 24.10387316 51.24581706 25.81326327 51.82667542 27.52258301 C55.97516658 39.76560758 59.98345658 52.05219889 63.94181824 64.35778809 C67.76684366 76.24475581 71.71706923 88.08395041 75.77223206 99.89440918 C76.03061859 100.64805756 76.28900513 101.40170593 76.55522156 102.17819214 C79.24979384 110.22282794 79.24979384 110.22282794 82.2971344 118.13464355 C83.14723206 120.39440918 83.14723206 120.39440918 83.14723206 123.39440918 C71.26723206 123.39440918 59.38723206 123.39440918 47.14723206 123.39440918 C45.99223206 119.97065918 44.83723206 116.54690918 43.64723206 113.01940918 C43.28178284 111.94126953 42.91633362 110.86312988 42.53981018 109.75231934 C42.11345276 108.48073975 42.11345276 108.48073975 41.67848206 107.18347168 C41.38522034 106.31416016 41.09195862 105.44484863 40.78981018 104.54919434 C40.14723206 102.39440918 40.14723206 102.39440918 40.14723206 100.39440918 C26.61723206 100.39440918 13.08723206 100.39440918 -0.85276794 100.39440918 C-1.51276794 103.36440918 -2.17276794 106.33440918 -2.85276794 109.39440918 C-3.50316891 111.55177691 -4.18610591 113.69987267 -4.91526794 115.83190918 C-5.25686951 116.84124512 -5.59847107 117.85058105 -5.95042419 118.89050293 C-6.85276794 121.39440918 -6.85276794 121.39440918 -7.85276794 123.39440918 C-19.73276794 123.39440918 -31.61276794 123.39440918 -43.85276794 123.39440918 C-42.09993838 117.55164398 -40.35164265 111.76367639 -38.42698669 105.98425293 C-38.20311279 105.31131195 -37.97923889 104.63837097 -37.74858093 103.94503784 C-37.01423028 101.74007237 -36.27739806 99.53594689 -35.54026794 97.33190918 C-35.28254608 96.55962982 -35.02482422 95.78735046 -34.7592926 94.9916687 C-29.91813166 80.48737268 -24.98279615 66.01578089 -20.02244568 51.55187988 C-17.17334833 43.23716723 -14.34829098 34.91586743 -11.59104919 26.57019043 C-11.3350444 25.79627457 -11.07903961 25.0223587 -10.8152771 24.22499084 C-9.6129012 20.58733307 -8.41598063 16.94801477 -7.2275238 13.30578613 C-6.80586313 12.02538752 -6.38407718 10.74503017 -5.96214294 9.46472168 C-5.60088318 8.35886719 -5.23962341 7.2530127 -4.86741638 6.11364746 C-2.80933907 0.59803988 -2.80933907 0.59803988 0 0 Z M19.14723206 34.39440918 C17.57530369 39.4647903 16.00887088 44.53682378 14.44752502 49.61047363 C13.91550806 51.33652624 13.38198761 53.06211617 12.84693909 54.78723145 C12.07850008 57.26576803 11.31546869 59.74591371 10.55348206 62.22644043 C10.1925647 63.38439873 10.1925647 63.38439873 9.82435608 64.56575012 C8.89388424 67.60997332 8.14723206 70.19184901 8.14723206 73.39440918 C16.06723206 73.39440918 23.98723206 73.39440918 32.14723206 73.39440918 C29.90116934 65.15884587 27.57394276 56.99227155 25.08473206 48.83190918 C24.73346252 47.65821777 24.38219299 46.48452637 24.02027893 45.27526855 C23.6793219 44.1582959 23.33836487 43.04132324 22.98707581 41.89050293 C22.68148743 40.88173096 22.37589905 39.87295898 22.06105042 38.83361816 C21.28882589 36.25994132 21.28882589 36.25994132 19.14723206 34.39440918 Z " fill="#FDFDFC" transform="translate(329.85276794433594,64.6055908203125)"/>
<path d="M0 0 C21.2540625 -0.0309375 21.2540625 -0.0309375 42.9375 -0.0625 C49.65855103 -0.07615601 49.65855103 -0.07615601 56.51538086 -0.09008789 C61.96984863 -0.09460449 61.96984863 -0.09460449 64.52003479 -0.09544373 C66.3083267 -0.09698339 68.09661755 -0.10050877 69.88490295 -0.10557556 C72.58726822 -0.11285215 75.28956983 -0.11390745 77.99194336 -0.11352539 C78.79402442 -0.1171235 79.59610548 -0.12072161 80.42249203 -0.12442875 C85.88597366 -0.11402634 85.88597366 -0.11402634 87 1 C87.08748207 2.92667507 87.10697334 4.85651861 87.09765625 6.78515625 C87.09282227 8.53989258 87.09282227 8.53989258 87.08789062 10.33007812 C87.07532227 12.17762695 87.07532227 12.17762695 87.0625 14.0625 C87.05798828 15.29806641 87.05347656 16.53363281 87.04882812 17.80664062 C87.03699608 20.87114117 87.02051173 23.93554721 87 27 C84.49697348 28.25151326 82.88918798 28.08375047 80.09130859 28.02172852 C79.07040131 28.00163223 78.04949402 27.98153595 76.99765015 27.96083069 C75.33978989 27.92027809 75.33978989 27.92027809 73.6484375 27.87890625 C72.5192691 27.85529526 71.39010071 27.83168427 70.22671509 27.80735779 C66.60935272 27.73059782 62.99219783 27.64662645 59.375 27.5625 C56.92709359 27.50929167 54.47917696 27.4565512 52.03125 27.40429688 C46.02070119 27.27496595 40.01032881 27.13916597 34 27 C34 34.26 34 41.52 34 49 C49.84 49 65.68 49 82 49 C82.185625 53.08375 82.37125 57.1675 82.5625 61.375 C82.62381104 62.66196777 82.68512207 63.94893555 82.74829102 65.27490234 C82.81294556 66.79011475 82.81294556 66.79011475 82.87890625 68.3359375 C82.94960327 69.89127197 82.94960327 69.89127197 83.02172852 71.47802734 C83 74 83 74 82 76 C66.16 75.67 50.32 75.34 34 75 C34 81.93 34 88.86 34 96 C51.49 96 68.98 96 87 96 C87 104.91 87 113.82 87 123 C58.29 123 29.58 123 0 123 C0 82.41 0 41.82 0 0 Z " fill="#FDFDFD" transform="translate(815,65)"/>
<path d="M0 0 C1.0326297 -0.00637985 2.0652594 -0.0127597 3.12918091 -0.01933289 C4.82263138 -0.02100212 4.82263138 -0.02100212 6.55029297 -0.02270508 C7.71188934 -0.02603348 8.87348572 -0.02936188 10.07028198 -0.03279114 C12.54359541 -0.03787072 15.01691574 -0.04019915 17.49023438 -0.04003906 C21.2278223 -0.04219896 24.96510215 -0.06026907 28.70263672 -0.0793457 C66.32484255 -0.16991189 66.32484255 -0.16991189 82.16748047 12.14526367 C90.40974919 20.38753239 94.09009204 31.067291 94.47998047 42.52026367 C94.2363485 53.43802122 90.45651568 64.94065478 82.85498047 72.95776367 C67.41381636 87.07350597 48.81348274 86.27623702 29.16748047 86.14526367 C29.16748047 98.35526367 29.16748047 110.56526367 29.16748047 123.14526367 C17.61748047 123.14526367 6.06748047 123.14526367 -5.83251953 123.14526367 C-5.85506676 107.25570922 -5.87349883 91.36616738 -5.8843317 75.4766016 C-5.88949461 68.09930411 -5.8965372 60.72201724 -5.90795898 53.34472656 C-5.91790599 46.91694187 -5.924373 40.48916487 -5.92660803 34.0613727 C-5.92791511 30.65587089 -5.93100078 27.25039109 -5.93824959 23.84489632 C-5.94545559 20.04925326 -5.94651066 16.25365655 -5.94604492 12.45800781 C-5.9496402 11.32081299 -5.95323547 10.18361816 -5.9569397 9.01196289 C-5.95556503 7.98406143 -5.95419037 6.95615997 -5.95277405 5.89710999 C-5.95369584 4.99836183 -5.95461763 4.09961367 -5.95556736 3.17363071 C-5.71604317 -0.77477678 -3.4154427 0.01427769 0 0 Z M29.16748047 27.14526367 C29.16748047 37.70526367 29.16748047 48.26526367 29.16748047 59.14526367 C43.86253127 59.5668446 43.86253127 59.5668446 56.16748047 53.14526367 C59.29480348 48.30433901 58.74631624 42.68130834 58.16748047 37.14526367 C56.21546426 32.59055918 53.48168279 29.92783912 48.93701172 27.82495117 C42.51561876 26.24903809 35.70832184 26.94086238 29.16748047 27.14526367 Z " fill="#FDFDFC" transform="translate(658.83251953125,64.854736328125)"/>
<path d="M0 0 C73.2372093 0 73.2372093 0 88 12 C96.18777799 20.28060994 99.66175013 31.26612865 100.0625 42.6875 C99.84441631 54.24593559 95.35924311 65.8351579 87 74 C71.24484178 86.83630785 54.63466591 86 35 86 C34.67 98.21 34.34 110.42 34 123 C22.78 123 11.56 123 0 123 C0 82.41 0 41.82 0 0 Z M34 27 C34 37.56 34 48.12 34 59 C45.58450187 59.30370716 45.58450187 59.30370716 56 57 C56.7425 56.773125 57.485 56.54625 58.25 56.3125 C61.94413352 53.54189986 63.71337042 49.99380794 64.35546875 45.52734375 C64.5200106 40.33252234 64.09942206 36.33919088 61 32 C56.66454663 28.65808802 53.24217916 26.86353064 47.76953125 26.90234375 C46.68442261 26.90609009 46.68442261 26.90609009 45.57739258 26.90991211 C44.20877075 26.92356812 44.20877075 26.92356812 42.8125 26.9375 C39.904375 26.958125 36.99625 26.97875 34 27 Z " fill="#FDFDFC" transform="translate(543,65)"/>
<path d="M0 0 C11.22 0 22.44 0 34 0 C35 1 35 1 35.12304783 3.02836704 C35.12212604 3.9271152 35.12120424 4.82586336 35.12025452 5.75184631 C35.12162918 6.77974777 35.12300385 7.80764923 35.12442017 8.86669922 C35.11902725 10.57249146 35.11902725 10.57249146 35.11352539 12.31274414 C35.11367142 13.50282578 35.11381744 14.69290741 35.1139679 15.91905212 C35.11338894 19.19163274 35.10835981 22.46417107 35.10139394 25.73674321 C35.09515967 29.15338665 35.09455654 32.57003083 35.09336853 35.98667908 C35.09025543 42.46069267 35.08204233 48.93468946 35.07201904 55.40869564 C35.06085725 62.7773792 35.05534729 70.14606355 35.05032361 77.51475346 C35.03985969 92.67651322 35.02151448 107.83825114 35 123 C23.45 123 11.9 123 0 123 C0 82.41 0 41.82 0 0 Z " fill="#FEFEFC" transform="translate(764,65)"/>
<path d="M0 0 C5.41905763 3.13574683 8.20825616 7.26378552 10.8359375 12.89453125 C12.38664597 20.08417961 10.74011369 25.90150818 6.98828125 32.1328125 C4.17763322 35.87284814 0.95802508 37.60383539 -3.4765625 39.08203125 C-9.7442971 39.59368305 -15.13504201 39.77022397 -20.4765625 36.08203125 C-24.82353599 32.24051979 -28.06956781 28.69436929 -28.98046875 22.84765625 C-29.09952819 15.70409011 -28.80287739 10.54798864 -24.2265625 4.859375 C-17.68949697 -1.77983217 -8.85444673 -3.28201101 0 0 Z M-20.7265625 8.45703125 C-24.08895821 13.50062482 -24.8638759 16.89717415 -24.01953125 22.8671875 C-22.79604347 27.85796141 -19.79587857 31.4347085 -15.4765625 34.08203125 C-11.23896151 35.49456491 -7.65072847 35.91356861 -3.3828125 34.28125 C1.50922285 31.6253129 4.01795405 28.62698031 5.96484375 23.41796875 C7.18782612 18.30367883 6.27339111 14.52638635 3.8359375 9.83203125 C0.90481784 6.34637544 -1.78345309 3.56140472 -6.4296875 2.734375 C-12.35015642 2.47450709 -16.59149224 4.09223486 -20.7265625 8.45703125 Z " fill="#FBFBF9" transform="translate(932.4765625,42.91796875)"/>
<path d="M0 0 C2.24834496 -0.13526139 4.49902514 -0.23210804 6.75 -0.3125 C8.00296875 -0.37050781 9.2559375 -0.42851563 10.546875 -0.48828125 C14 0 14 0 16.453125 2.51953125 C16.96359375 3.33808594 17.4740625 4.15664063 18 5 C18.4125 4.175 18.825 3.35 19.25 2.5 C20.11625 1.2625 20.11625 1.2625 21 0 C22.32 0 23.64 0 25 0 C25 4.29 25 8.58 25 13 C21.11151988 13.97212003 19.72150531 13.88140915 16 13 C15.34 13 14.68 13 14 13 C12.68 13 11.36 13 10 13 C10 10.03 10 7.06 10 4 C9.01 4 8.02 4 7 4 C7 6.97 7 9.94 7 13 C5.68 13.33 4.36 13.66 3 14 C2 13 2 13 1.90234375 10.93359375 C1.91974609 9.69802734 1.91974609 9.69802734 1.9375 8.4375 C1.94652344 7.61121094 1.95554687 6.78492188 1.96484375 5.93359375 C1.97644531 5.29550781 1.98804688 4.65742187 2 4 C1.01 4 0.02 4 -1 4 C-0.67 2.68 -0.34 1.36 0 0 Z " fill="#F8F8F5" transform="translate(911,55)"/>
<path d="M0 0 C0.66 0.33 1.32 0.66 2 1 C2 3.97 2 6.94 2 10 C0.68 10.33 -0.64 10.66 -2 11 C-3 10 -3 10 -3.09765625 7.93359375 C-3.08605469 7.10988281 -3.07445312 6.28617187 -3.0625 5.4375 C-3.05347656 4.61121094 -3.04445313 3.78492188 -3.03515625 2.93359375 C-3.02355469 2.29550781 -3.01195312 1.65742187 -3 1 C-2.01 0.67 -1.02 0.34 0 0 Z " fill="#FEFEFD" transform="translate(916,58)"/>
<path d="M0 0 C6.57142857 4 6.57142857 4 8 8 C4.0480185 8 2.85351584 6.62823828 0 4 C-0.33 3.01 -0.66 2.02 -1 1 C-0.67 0.67 -0.34 0.34 0 0 Z " fill="#F7F7F1" transform="translate(930,44)"/>
<path d="M0 0 C1.32 0 2.64 0 4 0 C3.43628586 3.26954202 2.50037734 4.82575883 0 7 C-0.66 6.34 -1.32 5.68 -2 5 C-1.46428571 1.46428571 -1.46428571 1.46428571 0 0 Z " fill="#F0F0ED" transform="translate(932,55)"/>
<path d="M0 0 C1.32 0.33 2.64 0.66 4 1 C4.33 1.66 4.66 2.32 5 3 C4.01 3 3.02 3 2 3 C2 6.63 2 10.26 2 14 C1.34 14 0.68 14 0 14 C0 9.38 0 4.76 0 0 Z " fill="#FDFDFC" transform="translate(922,55)"/>
<path d="M0 0 C1.32 0 2.64 0 4 0 C4.125 2.875 4.125 2.875 4 6 C3.34 6.66 2.68 7.32 2 8 C0.74335022 5.09399739 0 3.20395416 0 0 Z " fill="#F7F7F4" transform="translate(371,168)"/>
</svg>
